<!--?xml version="1.0" standalone="no"?-->
              <svg id="sw-js-blob-svg" viewBox="0 0 100 100" xmlns="http://www.w3.org/2000/svg" version="1.1">
                    <defs> 
                        <linearGradient id="sw-gradient" x1="0" x2="1" y1="1" y2="0">
                            <stop id="stop1" stop-color="rgba(55, 159.74, 248, 0.42)" offset="0%"></stop>
                            <stop id="stop2" stop-color="rgba(70.484, 137.27, 249.379, 0.28)" offset="100%"></stop>
                        </linearGradient>
                    </defs>
                <path fill="url(#sw-gradient)" d="M19.7,-33.8C25.6,-30.7,30.3,-25.5,31.2,-19.5C32.1,-13.5,29.2,-6.8,30.1,0.5C31,7.8,35.8,15.6,35.3,22.3C34.8,29,28.9,34.5,22.2,35C15.4,35.5,7.7,31,1,29.3C-5.7,27.6,-11.5,28.7,-17.7,27.9C-24,27.1,-30.9,24.4,-36.2,19.5C-41.6,14.5,-45.5,7.3,-43.6,1.1C-41.6,-5,-33.9,-10,-29.2,-16.2C-24.6,-22.5,-23,-29.9,-18.7,-33.8C-14.3,-37.7,-7.2,-38.2,-0.1,-38C6.9,-37.8,13.8,-36.9,19.7,-33.8Z" width="100%" height="100%" transform="translate(50 50)" stroke-width="0" style="transition: 0.3s;" stroke="url(#sw-gradient)"></path>
              </svg>